<?xml version="1.0" standalone="no"?>
<!DOCTYPE svg PUBLIC "-//W3C//DTD SVG 20010904//EN"
 "http://www.w3.org/TR/2001/REC-SVG-20010904/DTD/svg10.dtd">
<svg version="1.0" xmlns="http://www.w3.org/2000/svg"
 width="500.000000pt" height="500.000000pt" viewBox="0 0 500.000000 500.000000"
 preserveAspectRatio="xMidYMid meet">
<metadata>
Created by potrace 1.15, written by Peter Selinger 2001-2017
</metadata>
<g transform="translate(0.000000,500.000000) scale(0.100000,-0.100000)"
fill="#000000" stroke="none">
<path d="M2380 4994 c-117 -16 -443 -69 -610 -100 -185 -35 -201 -40 -325 -99
-71 -34 -412 -190 -757 -346 l-628 -283 0 -1470 0 -1471 660 -424 c364 -234
663 -428 666 -433 11 -18 109 -59 334 -141 294 -106 669 -229 689 -225 18 4
-74 108 -346 393 -301 316 -322 335 -510 453 -94 59 -360 229 -591 377 l-421
270 -1 1176 0 1176 28 13 c179 83 1096 496 1123 505 20 7 52 21 70 31 63 32
458 348 659 526 l74 67 46 -40 c129 -113 401 -338 520 -431 129 -100 185 -136
240 -153 26 -8 1139 -511 1146 -518 2 -2 3 -308 2 -679 l-3 -675 -125 54 c-69
29 -167 69 -218 88 l-93 35 -1472 -2 -1472 -3 -125 -51 c-163 -67 -330 -145
-330 -154 0 -9 183 -95 335 -156 l120 -49 1485 0 1485 0 150 61 c83 34 176 73
208 88 l57 26 0 -468 -1 -467 -421 -270 c-231 -148 -497 -318 -591 -377 -188
-118 -209 -137 -510 -453 -272 -285 -364 -389 -346 -393 20 -4 395 119 689
225 225 82 323 123 334 141 3 5 302 199 666 433 l660 424 0 1471 0 1470 -627
284 c-346 155 -686 311 -758 345 -119 56 -145 65 -295 93 -435 83 -749 121
-870 106z"/>
</g>
</svg>
